# xmcd
#
# Track frame offsets:
#	150
#	15224
#	32551
#	48862
#	67698
#	83515
#	99628
#	115090
#	129250
#	144201
#	157973
#	173287
#	188097
#	205719
#	224826
#	237599
#
# Disc length: 3373 seconds
#
# Revision: 0
# Processed by: cddbd v1.5.1PL0 Copyright (c) Steve Scherf et al.
# Submitted via: audiograbber 1.83.01
#
DISCID=bc0d2b10
DTITLE=Jim Hendricks - Home On The Range
DYEAR=1900
DGENRE=Country
TTITLE0=Back In The Saddle Again
TTITLE1=I Want To Be A Cowboy's Sweetheart
TTITLE2=Home On The Range
TTITLE3=Old Dan Tucker/ Skip To My Lou
TTITLE4=Cowboy Jack - Down In The Valley
TTITLE5=Room Full Of Roses
TTITLE6=When They Ring Them Golden Bells
TTITLE7=Montana
TTITLE8=Little Joe The Wrangler
TTITLE9=Cindy
TTITLE10=Sweet Betsy From Pike
TTITLE11=When The Work's All Done This Fall
TTITLE12=I Ride An Old Paint
TTITLE13=The Colorado Trail - Bury Me Not On The Lone Paririe
TTITLE14=Get Along, Little Dogies
TTITLE15=When My Blue Moon Tunes To Gold Again
EXTD=
EXTT0=
EXTT1=
EXTT2=
EXTT3=
EXTT4=
EXTT5=
EXTT6=
EXTT7=
EXTT8=
EXTT9=
EXTT10=
EXTT11=
EXTT12=
EXTT13=
EXTT14=
EXTT15=
PLAYORDER=
